PathFileType	4	(X/Y/Z)	markers_0_video_left_upright_43fa9c767a284c608474a81e5a60fe99.trc
DataRate	CameraRate	NumFrames	NumMarkers	Units	OrigDataRate	OrigDataStartFrame	OrigNumFrames
12.500000	12.500000	4	42	mm	12.500000	2639	3015
Frame#	Time	Nose			LEye			REye			LEar			REar			LShoulder			RShoulder			LElbow			RElbow			LHip			RHip			LKnee			RKnee			LAnkle			RAnkle			LBigToe			LSmallToe			LHeel			RBigToe			RSmallToe			RHeel			RIndex			RPinky			RWrist			LIndex			LPinky			LWrist			LOlecranon			ROlecranon			LCubitalFossa			RCubitalFossa			LAcromion			RAcromion			Neck			PelvisCenter			Thorax			c_spine0			c_spine1			c_spine2			c_spine3			c_neck			c_head
		X1	Y1	Z1	X2	Y2	Z2	X3	Y3	Z3	X4	Y4	Z4	X5	Y5	Z5	X6	Y6	Z6	X7	Y7	Z7	X8	Y8	Z8	X9	Y9	Z9	X10	Y10	Z10	X11	Y11	Z11	X12	Y12	Z12	X13	Y13	Z13	X14	Y14	Z14	X15	Y15	Z15	X16	Y16	Z16	X17	Y17	Z17	X18	Y18	Z18	X19	Y19	Z19	X20	Y20	Z20	X21	Y21	Z21	X22	Y22	Z22	X23	Y23	Z23	X24	Y24	Z24	X25	Y25	Z25	X26	Y26	Z26	X27	Y27	Z27	X28	Y28	Z28	X29	Y29	Z29	X30	Y30	Z30	X31	Y31	Z31	X32	Y32	Z32	X33	Y33	Z33	X34	Y34	Z34	X35	Y35	Z35	X36	Y36	Z36	X37	Y37	Z37	X38	Y38	Z38	X39	Y39	Z39	X40	Y40	Z40	X41	Y41	Z41	X42	Y42	Z42

2639	211.040000	9229.949132	1513.878081	-2134.812541	9208.192582	1590.093042	-2114.420517	9191.708010	1555.101708	-2193.525510	9296.266145	1713.118828	-2115.420920	9258.328328	1627.389315	-2308.082314	9537.153238	1763.119983	-2085.925882	9452.563544	1579.367593	-2431.350517	9268.254631	1795.104300	-1806.566029	9089.756984	1471.466326	-2521.931102	10200.773949	1318.731242	-2118.407947	10151.480566	1216.012469	-2326.827168	10690.635054	1038.112239	-1972.489207	10605.189086	859.043185	-2410.371940	11236.006844	920.399669	-1985.704570	11092.424446	610.767134	-2508.799317	11220.031569	718.757769	-1815.331423	11268.047835	811.620747	-1788.683890	11312.848305	932.112802	-2011.797871	11086.045682	349.466604	-2434.346077	11104.850878	378.262815	-2536.352163	11168.375009	625.977950	-2529.494389	8580.328027	1614.036830	-2447.128137	8603.232101	1505.600318	-2466.668468	8761.203664	1535.104806	-2499.819198	8740.048552	1856.054875	-1812.356621	8789.200080	1825.821882	-1726.694319	8939.649032	1839.214158	-1781.000865	9270.453305	1796.680533	-1752.955710	9073.047023	1428.486539	-2553.003942	9246.778569	1787.739832	-1848.555365	9086.800113	1503.338980	-2489.901173	9484.753830	1778.966959	-2105.705613	9413.926967	1612.184457	-2420.859192	9450.880167	1636.077507	-2233.904832	10176.127257	1267.371855	-2222.617557	9449.340399	1695.575708	-2263.282402	10154.558849	1334.453796	-2250.529734	10004.522850	1396.307177	-2244.931387	9871.845902	1491.919080	-2261.595657	9631.479048	1616.017718	-2266.029218	9485.667659	1638.479935	-2242.557052	9346.517534	1628.870347	-2207.948171
2640	211.120000	9192.327606	1573.224507	-2142.337495	9178.443494	1652.197321	-2122.057866	9158.716726	1618.675660	-2202.545251	9280.192689	1765.271073	-2122.937501	9234.785222	1683.785090	-2316.626260	9521.477406	1794.745236	-2085.200360	9440.654402	1618.477369	-2440.635001	9236.956423	1807.830964	-1806.714776	9062.549940	1532.072925	-2545.309789	10169.635099	1323.970565	-2117.257422	10120.596022	1226.412274	-2324.294020	10645.260282	1023.211131	-1970.873632	10552.356048	844.296079	-2397.886022	11185.370462	886.577943	-1971.427264	11027.479598	573.152315	-2487.890898	11151.628462	681.605332	-1807.064666	11204.356753	770.561305	-1775.684831	11263.440531	895.838174	-1994.554673	11002.330455	313.113984	-2411.571879	11025.422187	339.710319	-2513.307991	11104.423412	583.652523	-2506.791005	8549.237939	1709.110125	-2493.116654	8567.798243	1599.799530	-2511.988964	8728.922935	1623.124355	-2539.320752	8685.396779	1854.517481	-1836.276154	8730.860053	1821.840066	-1747.455839	8889.591075	1842.668714	-1793.339216	9237.013925	1806.863361	-1752.617472	9043.070684	1488.988782	-2575.920085	9216.324268	1801.902988	-1850.372596	9061.046259	1565.447455	-2514.240554	9469.692842	1813.020527	-2105.999022	9403.053168	1653.047237	-2430.838174	9432.854895	1675.399551	-2240.033693	10145.115560	1275.191419	-2220.775721	9436.373005	1733.033882	-2268.418598	10125.625004	1343.643031	-2248.459540	9978.070056	1411.788522	-2244.377707	9850.286212	1513.908386	-2262.078560	9615.481728	1648.364715	-2269.649808	9470.030594	1675.455771	-2248.561679	9321.327743	1675.230822	-2214.449739
2641	211.200000	9240.760182	1530.460399	-2132.197310	9221.031766	1606.762556	-2107.152868	9203.165416	1576.581045	-2188.884006	9313.065247	1727.408619	-2101.902570	9272.046066	1653.858570	-2299.508610	9553.583875	1777.557613	-2069.191731	9476.147057	1599.846765	-2427.914666	9278.548298	1767.869895	-1785.394783	9109.984277	1482.473024	-2522.532079	10220.008562	1332.829991	-2112.930516	10171.950912	1231.718190	-2322.595375	10711.567124	1052.318418	-1970.414470	10618.283977	864.679881	-2405.333226	11256.446640	934.156877	-1973.176249	11094.264658	596.707705	-2502.666921	11233.415785	730.417412	-1805.491968	11281.389865	822.504508	-1775.799191	11333.916885	946.487835	-1996.554209	11088.379770	334.942910	-2424.233904	11106.922389	362.239580	-2526.790603	11169.639582	610.956165	-2523.903675	8587.547121	1615.572299	-2455.505460	8614.986287	1509.614348	-2474.115045	8771.250776	1541.806025	-2506.679151	8736.899808	1776.453737	-1800.346902	8790.892895	1744.214833	-1719.558029	8937.645282	1781.268764	-1768.629857	9279.309143	1765.973952	-1731.497726	9093.943563	1438.340560	-2553.251787	9258.202539	1761.490835	-1828.901536	9106.060466	1515.047838	-2490.990852	9500.642129	1793.454770	-2089.123170	9436.709518	1632.666802	-2417.024987	9469.788244	1654.744765	-2226.289336	10195.979737	1282.274091	-2217.762946	9468.675823	1713.060786	-2253.074079	10174.272865	1349.981313	-2245.393555	10024.597357	1413.429918	-2239.593030	9892.900639	1511.046178	-2255.166345	9652.616194	1636.354803	-2258.124530	9506.293641	1657.460551	-2235.281646	9360.272175	1646.597125	-2199.312405
2642	211.280000	9097.519969	1536.498119	-2144.405967	9079.616207	1612.257939	-2116.924321	9061.844259	1585.656329	-2200.161482	9174.963957	1729.801915	-2106.161590	9134.236289	1665.006735	-2306.801190	9413.690435	1779.606571	-2067.914527	9336.471567	1603.700197	-2435.357919	9135.397945	1753.260094	-1780.050919	8963.964050	1472.116556	-2522.728418	10081.850976	1328.616328	-2114.242311	10032.999058	1229.911275	-2325.399259	10572.871740	1046.564640	-1971.691341	10482.301908	866.628423	-2409.172813	11116.561644	921.048464	-1972.121693	10957.898355	597.183047	-2505.674114	11092.172602	721.031472	-1799.109114	11141.605737	813.241318	-1771.776557	11194.078304	931.917808	-1996.219206	10950.810240	336.190539	-2424.198529	10969.028175	362.320729	-2527.140488	11033.201027	610.712268	-2527.088858	8433.762919	1577.659780	-2446.811312	8468.527185	1475.549898	-2469.198873	8620.355928	1519.022258	-2498.978969	8580.255616	1759.529515	-1786.582381	8637.400323	1723.039226	-1710.192175	8784.981909	1763.439848	-1761.404278	9136.391305	1748.733654	-1725.820635	8948.362671	1427.279272	-2553.777195	9114.336376	1748.809709	-1824.148011	8959.927878	1504.418853	-2490.627580	9360.641620	1795.442797	-2088.682223	9297.085656	1637.131853	-2424.073127	9331.211499	1659.411519	-2231.133166	10057.425017	1279.263802	-2219.820785	9328.863638	1716.287325	-2256.377675	10036.303352	1347.521633	-2246.884808	9886.597744	1413.063183	-2241.328534	9755.339139	1512.557755	-2257.219465	9514.928824	1640.292236	-2261.323772	9367.931135	1662.042122	-2239.672332	9221.052812	1651.519635	-2205.515672
